<svg width="194" height="40" fill="none" xmlns="http://www.w3.org/2000/svg"><path fill-rule="evenodd" clip-rule="evenodd" d="M-36.343 52.421 105.078-89l7.071 7.071L-29.272 59.492l-7.071-7.07zM-27.858 72.22 119.22-74.856l7.071 7.07L-20.787 79.293l-7.071-7.071zM-13.716 86.362 133.362-60.716l7.071 7.071L-6.645 93.433l-7.07-7.07zM.426 100.505 147.504-46.573l7.071 7.07L7.497 107.577l-7.07-7.071zM14.568 114.647 161.646-32.432l7.072 7.071L21.639 121.718l-7.07-7.071zM28.71 128.789 175.79-18.289l7.071 7.071L35.781 135.86l-7.07-7.071zM42.853 142.931 189.931-4.147l7.071 7.07L49.924 150.003l-7.071-7.071zM56.995 157.073 204.073 9.995l7.071 7.071L64.066 164.144l-7.071-7.071z" fill="#F0F0F2"/></svg>