<svg width="64" height="48" fill="none" xmlns="http://www.w3.org/2000/svg"><path fill-rule="evenodd" clip-rule="evenodd" d="m-38.004 15 62.226-62.226 7.07 7.072-62.225 62.225-7.07-7.071zM-23.862 29.142l62.226-62.225 7.07 7.071-62.225 62.226-7.07-7.072zM-9.72 43.284l62.226-62.225 7.07 7.07-62.224 62.226-7.072-7.071zM4.423 57.427 66.648-4.8l7.071 7.071-62.225 62.226-7.071-7.071zM18.565 71.568 80.79 9.343l7.071 7.07L25.636 78.64l-7.071-7.07zM32.707 85.71l62.225-62.225 7.071 7.071-62.225 62.226-7.071-7.071z" fill="#E9E9EB"/></svg>