<svg width="64" height="48" fill="none" xmlns="http://www.w3.org/2000/svg"><g opacity=".05" fill-rule="evenodd" clip-rule="evenodd" fill="#DA0000"><path d="m-37.004 16 62.226-62.226 7.07 7.072-62.225 62.225-7.07-7.071zM-22.862 30.142l62.226-62.225 7.07 7.071-62.225 62.226-7.07-7.072zM-8.72 44.284l62.226-62.225 7.07 7.07-62.224 62.226-7.072-7.071zM5.423 58.427 67.648-3.8l7.071 7.071-62.225 62.226-7.071-7.071zM19.565 72.568 81.79 10.343l7.071 7.07L26.636 79.64l-7.071-7.07zM33.707 86.71l62.225-62.225 7.071 7.071-62.225 62.226-7.071-7.071z"/></g></svg>