<svg width="32" height="64" fill="none" xmlns="http://www.w3.org/2000/svg"><g clip-path="url(#a)" fill="#F4F5F7"><path d="m-40 25.048 77.715-62.932.629.777-77.715 62.932zM-36.853 28.934l77.715-62.932.63.777-77.716 62.932zM-33.707 32.82l77.714-62.933.63.777-77.715 62.932zM-30.56 36.705l77.714-62.932.63.777-77.715 62.932zM-27.414 40.591 50.301-22.34l.63.777-77.715 62.932zM-24.267 44.477l77.715-62.932.63.777-77.715 62.932zM-21.12 48.362 56.594-14.57l.63.777-77.715 62.932zM-17.974 52.248l77.715-62.932.629.777-77.715 62.932zM-14.827 56.134 62.888-6.798l.629.777-77.715 62.932zM-11.68 60.02 66.033-2.912l.63.777-77.715 62.932zM-8.534 63.905 69.18.973l.63.777-77.715 62.932zM-5.387 67.79 72.327 4.86l.63.777-77.715 62.932zM-2.24 71.677 75.473 8.745l.63.777-77.715 62.932zM.906 75.563 78.621 12.63l.63.777L1.535 76.34zM4.052 79.448l77.715-62.932.629.777L4.68 80.225zM7.199 83.334l77.715-62.932.629.777L7.828 84.111zM10.346 87.22l77.715-62.932.629.777-77.715 62.932zM13.492 91.106l77.715-62.932.63.777-77.715 62.932zM16.639 94.991l77.714-62.932.63.777-77.715 62.932zM19.785 98.877 97.5 35.945l.629.777-77.715 62.932zM22.932 102.763l77.715-62.932.629.777L23.56 103.54zM26.079 106.648l77.715-62.932.629.777-77.715 62.932zM29.225 110.534l77.715-62.932.629.777-77.715 62.932z"/></g><defs><clipPath id="a"><path fill="#fff" d="M0 0h32v64H0z"/></clipPath></defs></svg>